# xmcd
#
# Track frame offsets:
# 150
# 10912
# 23236
# 37225
# 51323
# 64861
# 78876
# 93118
# 106201
# 119518
# 132788
# 146475
# 160947
# 175199
# 189860
#
# Disc length: 2738 seconds
#
#
# Revision: 1
# Processed by: cddbd v1.5.2PL0 Copyright (c) Steve Scherf et al.
# Submitted via: FreeRIP 2.951 
#
DISCID=c10ab00f
DTITLE=Billie Holiday - 
DYEAR=1900
DGENRE=Blues
TTITLE0=You can't Be Mine
TTITLE1=Here Is To-Morrow Again
TTITLE2=Long Gone Blues
TTITLE3=More Than You Know
TTITLE4=Night And Day
TTITLE5=The Man I Love
TTITLE6=Tell Me More
TTITLE7=St. louis Blues
TTITLE8=Let's Do It
TTITLE9=God Böess The Child
TTITLE10=All Of Me
TTITLE11=Gloomy Sunday
TTITLE12=Until the real Thing Comes Along
TTITLE13=Trav'lin Light
TTITLE14=I Cover The Waterfront
EXTD=
EXTT0=
EXTT1=
EXTT2=
EXTT3=
EXTT4=
EXTT5=
EXTT6=
EXTT7=
EXTT8=
EXTT9=
EXTT10=
EXTT11=
EXTT12=
EXTT13=
EXTT14=
PLAYORDER=
